<svg width="120" height="61" viewBox="0 0 120 61" fill="none" xmlns="http://www.w3.org/2000/svg">
<path d="M18.3251 43.769C18.8229 44.0947 19.3801 44.319 19.9647 44.4293C20.5494 44.5396 21.15 44.5337 21.7323 44.4119C22.3146 44.2901 22.8673 44.0547 23.3586 43.7193C23.85 43.3839 24.2705 42.9549 24.596 42.457C24.9217 41.9591 25.1461 41.4019 25.2564 40.8173C25.3667 40.2327 25.3608 39.6321 25.2389 39.0498C25.1171 38.4674 24.8818 37.9148 24.5463 37.4234C24.2109 36.9321 23.782 36.5116 23.2841 36.186L7.04304 25.564C6.54514 25.2384 5.98798 25.014 5.40336 24.9037C4.81874 24.7934 4.21814 24.7993 3.63581 24.9211C3.05349 25.043 2.50087 25.2783 2.0095 25.6137C1.51813 25.9492 1.09763 26.3781 0.772043 26.876C0.446238 27.3739 0.221728 27.9312 0.111337 28.5159C0.000946403 29.1006 0.0068638 29.7014 0.128702 30.2838C0.250539 30.8663 0.485912 31.419 0.82142 31.9104C1.15693 32.4019 1.58598 32.8224 2.08405 33.148L11.6841 39.412L18.3251 43.769Z" fill="url(#paint0_linear_172_101)"/>
<path d="M17.6652 9.313C17.1673 8.98735 16.6101 8.76298 16.0255 8.65267C15.4409 8.54237 14.8402 8.5483 14.2579 8.67013C13.6756 8.79196 13.123 9.0273 12.6316 9.36272C12.1402 9.69814 11.7197 10.1271 11.3941 10.625L0.772157 26.866C0.116389 27.8275 -0.13577 29.0079 0.0699474 30.1534C0.275665 31.2989 0.922825 32.3178 1.87216 32.991L1.95715 33.05L2.06616 33.122L2.09015 33.138L2.11716 33.154L11.6961 39.41C6.53714 36.036 10.8422 28.038 10.8422 28.038L18.9872 15.585C19.6423 14.5776 19.8711 13.3515 19.6233 12.1756C19.3754 10.9997 18.6712 9.97022 17.6652 9.313Z" fill="url(#paint1_linear_172_101)"/>
<path d="M31.5531 23.395C30.5549 22.7425 29.3385 22.5129 28.1711 22.7566C27.0037 23.0004 25.9808 23.6976 25.3271 24.695C25.0033 25.1889 24.78 25.7418 24.6701 26.322C24.5602 26.9023 24.5657 27.4985 24.6865 28.0766C24.8072 28.6547 25.0408 29.2033 25.3738 29.691C25.7068 30.1788 26.1327 30.5961 26.6271 30.919L42.7271 41.477C43.7254 42.1295 44.9418 42.3591 46.1092 42.1154C47.2766 41.8716 48.2994 41.1745 48.9531 40.177C49.6057 39.1788 49.8353 37.9624 49.5915 36.795C49.3478 35.6276 48.6506 34.6047 47.6531 33.951L38.1331 27.725L31.5531 23.395Z" fill="url(#paint2_linear_172_101)"/>
<path d="M32.1711 57.581C33.1694 58.2335 34.3858 58.4631 35.5532 58.2194C36.7206 57.9756 37.7435 57.2784 38.3972 56.281L48.9551 40.181C49.6077 39.2281 49.8601 38.0572 49.6581 36.9202C49.4561 35.7831 48.8159 34.7708 47.8752 34.101L47.7932 34.042L47.6871 33.973L47.6632 33.957L47.6361 33.941L38.1361 27.723C43.2501 31.076 38.9721 39.007 38.9721 39.007L30.8781 51.353C30.5534 51.8466 30.3291 52.3994 30.2183 52.9798C30.1075 53.5602 30.1123 54.1567 30.2324 54.7353C30.3525 55.3138 30.5856 55.863 30.9183 56.3513C31.251 56.8396 31.6767 57.2575 32.1711 57.581Z" fill="url(#paint3_linear_172_101)"/>
<path d="M26.5541 57.009C26.4341 58.1551 25.864 59.2067 24.969 59.9325C24.0739 60.6584 22.9273 60.9992 21.7812 60.88C20.6353 60.7603 19.5839 60.1904 18.8581 59.2958C18.1322 58.4012 17.7913 57.2549 17.9102 56.109L22.9421 10.016C23.0619 8.8698 23.632 7.8181 24.5271 7.09217C25.4221 6.36624 26.5689 6.02554 27.7151 6.14501C28.8612 6.26501 29.9128 6.83519 30.6387 7.7302C31.3645 8.62521 31.7053 9.77184 31.5862 10.918L26.5541 57.009Z" fill="#141819"/>
<path d="M45.3791 22.804V23.397C45.3791 24.02 45.6791 24.139 46.1211 24.139H48.7951C49.2101 24.139 49.5081 24.317 49.5081 24.613V27.048C49.5081 27.348 49.2711 27.583 48.8241 27.703C47.7418 27.9532 46.635 28.0826 45.5241 28.089C42.7911 28.089 40.5941 26.932 40.5941 23.427V22.804C36.8821 22.032 34.1791 19.241 34.1791 13.51V9.97601C34.1791 3.08701 38.0691 0.442017 42.9681 0.442017C47.8671 0.442017 51.7591 3.08701 51.7591 9.97601V13.51C51.7641 19.21 49.0901 22.033 45.3791 22.804ZM46.6561 9.97401C46.6561 6.41101 45.4671 4.89702 42.9731 4.89702C40.4791 4.89702 39.3201 6.41101 39.3201 9.97401V13.508C39.3201 17.071 40.4771 18.585 42.9731 18.585C45.4691 18.585 46.6561 17.071 46.6561 13.508V9.97401Z" fill="url(#paint4_linear_172_101)"/>
<path d="M60.6091 23.041C55.7981 23.041 53.1561 20.041 53.1561 15.319V13.241C53.1561 8.518 55.7981 5.51901 60.6091 5.51901C65.4201 5.51901 68.0331 8.519 68.0331 13.241V15.319C68.0321 20.043 65.4201 23.041 60.6091 23.041ZM63.2541 13.241C63.2541 10.836 62.3331 9.617 60.6091 9.617C58.8851 9.617 57.9351 10.836 57.9351 13.241V15.319C57.9351 17.724 58.8851 18.972 60.6091 18.972C62.3331 18.972 63.2541 17.724 63.2541 15.319V13.241Z" fill="url(#paint5_linear_172_101)"/>
<path d="M82.8781 22.269C80.8061 22.7667 78.684 23.0257 76.5531 23.041C71.7421 23.041 69.1001 20.25 69.1001 15.441V13.123C69.1001 8.46101 71.5351 5.523 76.5531 5.523C77.3682 5.54385 78.1813 5.61331 78.9881 5.73101V0.593008C78.99 0.435094 79.054 0.284266 79.1663 0.173254C79.2787 0.0622416 79.4302 -5.16655e-06 79.5882 5.58145e-06H83.1801C83.3404 -0.000673677 83.4948 0.0606694 83.6109 0.171194C83.727 0.281718 83.7959 0.432863 83.8031 0.593008V21.411C83.8011 21.884 83.6811 22.091 82.8781 22.269ZM78.9901 9.64701C78.1817 9.55361 77.3689 9.50387 76.5551 9.49801C74.4481 9.49801 73.9101 11.041 73.9101 13.122V15.44C73.9101 17.547 74.4451 19.093 76.5551 19.093C77.3701 19.0952 78.184 19.036 78.9901 18.916V9.64701Z" fill="url(#paint6_linear_172_101)"/>
<path d="M99.6491 15.767H90.1791V15.826C90.1791 17.518 90.8921 19.064 93.2391 19.064C95.1101 19.064 97.7521 18.915 98.9391 18.795H99.0271C99.3541 18.795 99.5912 18.944 99.5912 19.269V21.525C99.5912 21.999 99.4741 22.209 98.9681 22.325C96.9805 22.8376 94.9324 23.0775 92.8802 23.038C89.2882 23.038 85.4272 21.138 85.4272 15.407V13.329C85.4272 8.54799 88.2181 5.51999 92.9411 5.51999C97.8101 5.51999 100.277 8.84599 100.277 13.329V15.051C100.276 15.498 100.039 15.767 99.6491 15.767ZM95.5811 12.678C95.5811 10.478 94.5731 9.37799 92.9071 9.37799C91.2731 9.37799 90.1741 10.506 90.1741 12.678V12.798H95.5741V12.678H95.5811Z" fill="url(#paint7_linear_172_101)"/>
<path d="M65.7101 28.362H60.8991V45.646C60.8973 45.8027 60.8343 45.9525 60.7234 46.0633C60.6126 46.1741 60.4629 46.2372 60.3062 46.239H56.4161C56.2594 46.2372 56.1097 46.1741 55.9988 46.0633C55.888 45.9525 55.825 45.8027 55.8232 45.646V28.362H50.9832C50.9069 28.3651 50.8308 28.3528 50.7593 28.3259C50.6879 28.2991 50.6226 28.2581 50.5673 28.2055C50.512 28.1529 50.4678 28.0897 50.4374 28.0197C50.4069 27.9497 50.3909 27.8743 50.3901 27.798V24.738C50.391 24.6617 50.4072 24.5864 50.4377 24.5165C50.4681 24.4465 50.5123 24.3834 50.5676 24.3308C50.6229 24.2783 50.6881 24.2373 50.7595 24.2104C50.8309 24.1834 50.9069 24.1711 50.9832 24.174H65.7132C65.8702 24.1677 66.0234 24.2233 66.1399 24.3287C66.2564 24.4342 66.3268 24.5811 66.3362 24.738V27.798C66.3269 27.9554 66.256 28.1028 66.1388 28.2084C66.0217 28.3139 65.8677 28.3691 65.7101 28.362Z" fill="url(#paint8_linear_172_101)"/>
<path d="M79.1871 39.232H69.7172V39.291C69.7172 40.983 70.4302 42.529 72.7772 42.529C74.6472 42.529 77.2902 42.38 78.4772 42.26H78.5651C78.8921 42.26 79.1292 42.409 79.1292 42.734V44.99C79.1292 45.464 79.0122 45.674 78.5062 45.79C76.5185 46.3026 74.4704 46.5425 72.4182 46.503C68.8262 46.503 64.9651 44.603 64.9651 38.872V36.794C64.9651 32.013 67.7561 28.985 72.4791 28.985C77.3511 28.985 79.8151 32.311 79.8151 36.794V38.516C79.8141 38.966 79.5771 39.232 79.1871 39.232ZM75.1191 36.145C75.1191 33.945 74.1111 32.845 72.4481 32.845C70.8141 32.845 69.7151 33.973 69.7151 36.145V36.265H75.1152L75.1191 36.145Z" fill="url(#paint9_linear_172_101)"/>
<path d="M93.9802 46.24H90.6502C90.4935 46.2382 90.3437 46.1751 90.2329 46.0643C90.122 45.9535 90.059 45.8037 90.0571 45.647V45.173C88.8719 46.074 87.4155 46.5452 85.9271 46.509C83.3431 46.509 80.8502 45.261 80.8502 41.4V41.134C80.8502 37.659 83.0772 36.116 88.1572 36.116H89.7572V35.047C89.7572 33.355 88.9272 32.998 87.5302 32.998C85.6302 32.998 83.5202 33.118 82.6002 33.206H82.4511C82.3789 33.2141 82.3058 33.2059 82.2372 33.1818C82.1686 33.1578 82.1063 33.1187 82.0549 33.0673C82.0035 33.0159 81.9643 32.9536 81.9403 32.885C81.9163 32.8164 81.908 32.7432 81.9162 32.671V30.266C81.9167 30.1075 81.9738 29.9545 82.0772 29.8344C82.1806 29.7143 82.3235 29.6351 82.4802 29.611C84.1654 29.2187 85.8881 29.0099 87.6182 28.988C91.8942 28.988 94.5681 30.71 94.5681 35.047V45.647C94.5679 45.8033 94.506 45.9533 94.396 46.0643C94.2859 46.1753 94.1365 46.2384 93.9802 46.24ZM89.8532 38.965H88.1611C86.0801 38.965 85.5482 39.678 85.5482 41.134V41.4C85.5482 42.648 86.1711 42.885 87.4191 42.885C88.2707 42.8588 89.1044 42.6345 89.8541 42.23L89.8532 38.965Z" fill="url(#paint10_linear_172_101)"/>
<path d="M118.442 46.24H114.85C114.689 46.2343 114.536 46.1661 114.424 46.0499C114.312 45.9336 114.25 45.7784 114.25 45.617V35.49C114.25 33.59 113.806 33.026 112.441 33.026C111.65 33.0449 110.871 33.2271 110.153 33.561C110.212 34.154 110.244 34.838 110.244 35.493V45.62C110.245 45.7814 110.182 45.9366 110.07 46.0529C109.958 46.1691 109.805 46.2373 109.644 46.243H106.052C105.889 46.2373 105.734 46.1698 105.618 46.0541C105.503 45.9385 105.436 45.7833 105.43 45.62V35.493C105.43 33.593 105.073 33.029 103.708 33.029C102.909 33.1209 102.14 33.3842 101.452 33.801V45.62C101.453 45.7814 101.39 45.9366 101.278 46.0529C101.166 46.1691 101.013 46.2373 100.852 46.243H97.2601C97.0968 46.237 96.9418 46.1695 96.8262 46.0539C96.7107 45.9384 96.6431 45.7833 96.6372 45.62V29.82C96.639 29.6621 96.703 29.5113 96.8153 29.4003C96.9276 29.2892 97.0792 29.227 97.2371 29.227H100.622C100.779 29.2288 100.929 29.2919 101.039 29.4027C101.15 29.5135 101.213 29.6633 101.215 29.82V30.475C102.497 29.5448 104.032 29.0268 105.615 28.99C106.272 28.9376 106.932 29.0422 107.541 29.2952C108.149 29.5482 108.689 29.9423 109.115 30.445C110.55 29.493 112.234 28.9867 113.955 28.99C117.874 28.99 119.064 31.603 119.064 35.49V45.62C119.057 45.7823 118.989 45.936 118.873 46.0507C118.758 46.1654 118.605 46.233 118.442 46.24Z" fill="url(#paint11_linear_172_101)"/>
<defs>
<linearGradient id="paint0_linear_172_101" x1="58.1013" y1="-99.3534" x2="80.8733" y2="-99.3534" gradientUnits="userSpaceOnUse">
<stop offset="0.167" stop-color="#1B81B9"/>
<stop offset="0.342" stop-color="#1B85B9"/>
<stop offset="0.517" stop-color="#1A91B9"/>
<stop offset="0.691" stop-color="#19A5B9"/>
<stop offset="0.865" stop-color="#17C1B8"/>
<stop offset="1" stop-color="#16DCB8"/>
</linearGradient>
<linearGradient id="paint1_linear_172_101" x1="62.7714" y1="-109.712" x2="94.66" y2="-109.712" gradientUnits="userSpaceOnUse">
<stop stop-color="#16DCB8"/>
<stop offset="0.135" stop-color="#17C1B8"/>
<stop offset="0.309" stop-color="#19A5B9"/>
<stop offset="0.483" stop-color="#1A91B9"/>
<stop offset="0.658" stop-color="#1B85B9"/>
<stop offset="0.833" stop-color="#1B81B9"/>
</linearGradient>
<linearGradient id="paint2_linear_172_101" x1="1343.11" y1="665.974" x2="1365.69" y2="665.974" gradientUnits="userSpaceOnUse">
<stop offset="0.167" stop-color="#BC2A44"/>
<stop offset="0.308" stop-color="#BF3042"/>
<stop offset="0.5" stop-color="#C9413B"/>
<stop offset="0.721" stop-color="#D85E2F"/>
<stop offset="0.961" stop-color="#EE8520"/>
<stop offset="1" stop-color="#F28C1D"/>
</linearGradient>
<linearGradient id="paint3_linear_172_101" x1="1347.35" y1="665.309" x2="1377.52" y2="651.462" gradientUnits="userSpaceOnUse">
<stop offset="0.142" stop-color="#F28C1D"/>
<stop offset="0.188" stop-color="#EE8420"/>
<stop offset="0.43" stop-color="#D85D30"/>
<stop offset="0.653" stop-color="#C9403C"/>
<stop offset="0.847" stop-color="#BF2F43"/>
<stop offset="0.99" stop-color="#BC2945"/>
</linearGradient>
<linearGradient id="paint4_linear_172_101" x1="35.902" y1="3.3173" x2="58.1749" y2="14.0393" gradientUnits="userSpaceOnUse">
<stop offset="0.142" stop-color="#F28C1D"/>
<stop offset="0.188" stop-color="#EE8420"/>
<stop offset="0.43" stop-color="#D85D30"/>
<stop offset="0.653" stop-color="#C9403C"/>
<stop offset="0.847" stop-color="#BF2F43"/>
<stop offset="0.99" stop-color="#BC2945"/>
</linearGradient>
<linearGradient id="paint5_linear_172_101" x1="55.0158" y1="7.62165" x2="68.0429" y2="18.8147" gradientUnits="userSpaceOnUse">
<stop offset="0.142" stop-color="#F28C1D"/>
<stop offset="0.188" stop-color="#EE8420"/>
<stop offset="0.43" stop-color="#D85D30"/>
<stop offset="0.653" stop-color="#C9403C"/>
<stop offset="0.847" stop-color="#BF2F43"/>
<stop offset="0.99" stop-color="#BC2945"/>
</linearGradient>
<linearGradient id="paint6_linear_172_101" x1="72.9376" y1="5.3916" x2="89.016" y2="13.1945" gradientUnits="userSpaceOnUse">
<stop offset="0.142" stop-color="#F28C1D"/>
<stop offset="0.188" stop-color="#EE8420"/>
<stop offset="0.43" stop-color="#D85D30"/>
<stop offset="0.653" stop-color="#C9403C"/>
<stop offset="0.847" stop-color="#BF2F43"/>
<stop offset="0.99" stop-color="#BC2945"/>
</linearGradient>
<linearGradient id="paint7_linear_172_101" x1="87.2983" y1="7.67522" x2="101.428" y2="19.7824" gradientUnits="userSpaceOnUse">
<stop offset="0.142" stop-color="#F28C1D"/>
<stop offset="0.188" stop-color="#EE8420"/>
<stop offset="0.43" stop-color="#D85D30"/>
<stop offset="0.653" stop-color="#C9403C"/>
<stop offset="0.847" stop-color="#BF2F43"/>
<stop offset="0.99" stop-color="#BC2945"/>
</linearGradient>
<linearGradient id="paint8_linear_172_101" x1="58.3631" y1="46.239" x2="58.3631" y2="24.1735" gradientUnits="userSpaceOnUse">
<stop offset="0.167" stop-color="#1B81B9"/>
<stop offset="0.342" stop-color="#1B85B9"/>
<stop offset="0.517" stop-color="#1A91B9"/>
<stop offset="0.691" stop-color="#19A5B9"/>
<stop offset="0.865" stop-color="#17C1B8"/>
<stop offset="1" stop-color="#16DCB8"/>
</linearGradient>
<linearGradient id="paint9_linear_172_101" x1="72.3901" y1="46.5072" x2="72.3901" y2="28.985" gradientUnits="userSpaceOnUse">
<stop offset="0.167" stop-color="#1B81B9"/>
<stop offset="0.342" stop-color="#1B85B9"/>
<stop offset="0.517" stop-color="#1A91B9"/>
<stop offset="0.691" stop-color="#19A5B9"/>
<stop offset="0.865" stop-color="#17C1B8"/>
<stop offset="1" stop-color="#16DCB8"/>
</linearGradient>
<linearGradient id="paint10_linear_172_101" x1="87.7092" y1="46.5109" x2="87.7092" y2="28.988" gradientUnits="userSpaceOnUse">
<stop offset="0.167" stop-color="#1B81B9"/>
<stop offset="0.342" stop-color="#1B85B9"/>
<stop offset="0.517" stop-color="#1A91B9"/>
<stop offset="0.691" stop-color="#19A5B9"/>
<stop offset="0.865" stop-color="#17C1B8"/>
<stop offset="1" stop-color="#16DCB8"/>
</linearGradient>
<linearGradient id="paint11_linear_172_101" x1="107.851" y1="46.243" x2="107.851" y2="28.9768" gradientUnits="userSpaceOnUse">
<stop offset="0.167" stop-color="#1B81B9"/>
<stop offset="0.342" stop-color="#1B85B9"/>
<stop offset="0.517" stop-color="#1A91B9"/>
<stop offset="0.691" stop-color="#19A5B9"/>
<stop offset="0.865" stop-color="#17C1B8"/>
<stop offset="1" stop-color="#16DCB8"/>
</linearGradient>
</defs>
</svg>
